# xmcd
#
# Track frame offsets: 
#        15163
#        29445
#        49214
#        67998
#        82817
#        94836
#        106680
#        123518
#        144856
#        160256
#
# Disc length: 2391 seconds
#
# Revision: 0
# Processed by: cddbd v1.4PL0 Copyright (c) Steve Scherf et al.
# Submitted via: ExactAudioCopy v0.90b4
#
DISCID=79088d0a
DTITLE=Johnny Rawls - Put Your Trust In Me
DYEAR=2000
DGENRE=Soul Blues
TTITLE0=Hit By A Truck
TTITLE1=Should Be At Work
TTITLE2=Sometimes
TTITLE3=Talk Is Cheap
TTITLE4=It Ain't Nothin' But The Truth
TTITLE5=Gonna Keep On
TTITLE6=Put Your Trust In Me
TTITLE7=Don't Lose Your Good Thing
TTITLE8=Don't Give Up On Your Dream
TTITLE9=I Wann Come Home
EXTD=
EXTT0=
EXTT1=
EXTT2=
EXTT3=
EXTT4=
EXTT5=
EXTT6=
EXTT7=
EXTT8=
EXTT9=
PLAYORDER=
